<svg fill="none" height="24" viewBox="0 0 24 24" width="24" xmlns="http://www.w3.org/2000/svg"><g fill="#A0A3AD"><path d="m16 16 3 .0005c1.6569-.0003 3.0002 1.3427 3.0005 2.9995.0002 1.6569-1.3427 3.0002-2.9996 3.0005-1.6568.0002-3.0002-1.3427-3.0004-2.9995z"/><path d="m5.00047 16.0005 3 .0005-.00047 3c-.00026 1.6568-1.34362 2.9997-3.00047 2.9995-1.65686-.0003-2.99979-1.3436-2.99953-3.0005.00026-1.6568 1.34362-2.9998 3.00047-2.9995z"/><path clip-rule="evenodd" d="m19 8.00049-3-.00047.0005-3c.0002-1.65686 1.3436-2.99979 3.0004-2.99953 1.6569.00026 2.9998 1.34362 2.9996 3.00047-.0003 1.65685-1.3436 2.99979-3.0005 2.99953zm-10.99953-.00049-.00047-2.99998c-.00026-1.65686-1.34362-2.99979-3.00047-2.99953-1.65686.00026-2.99979 1.34362-2.99953 3.00047s1.34362 2.99979 3.00047 2.99953z" fill-rule="evenodd"/><path d="m16 8.00002-7.99953-.00002-.00047 8h8z" opacity=".5"/></g></svg>